<svg width="58" height="42" viewBox="0 0 58 42" fill="none" xmlns="http://www.w3.org/2000/svg">
<g clip-path="url(#clip0_657_27117)">
<path d="M3.80078 38.4473C3.68359 39.6191 3.03906 40.2539 1.86719 40.3516C1.32031 40.3516 0.841797 40.1758 0.431641 39.8242C0.0410156 39.4531 -0.154297 38.9941 -0.154297 38.4473V24.5605C-0.134766 24.0137 0.0703125 23.5645 0.460938 23.2129C0.851562 22.8418 1.32031 22.6562 1.86719 22.6562H3.30273H6.90625H14.1426C14.2598 22.6562 14.377 22.666 14.4941 22.6855H14.6699C16.0371 22.7246 17.1602 23.0371 18.0391 23.623C18.918 24.209 19.5527 24.8828 19.9434 25.6445C20.334 26.3867 20.5293 27.1387 20.5293 27.9004C20.5293 28.6816 20.334 29.4531 19.9434 30.2148C19.5723 30.957 18.9375 31.6211 18.0391 32.207C17.1602 32.793 16.0371 33.1055 14.6699 33.1445H9.51367C9.66992 34.1211 9.99219 34.8438 10.4805 35.3125C10.9492 35.7812 11.5449 36.0156 12.2676 36.0156H18.5957C19.1426 36.0352 19.5918 36.2402 19.9434 36.6309C20.3145 37.0215 20.5 37.4902 20.5 38.0371C20.4805 38.5645 20.2852 39.0137 19.9141 39.3848C19.5625 39.7363 19.123 39.9219 18.5957 39.9414H11.7402C10.2949 39.9609 8.98633 39.3945 7.81445 38.2422C6.64258 37.0898 5.92969 35.7227 5.67578 34.1406C5.32422 32.3828 5.14844 31.3965 5.14844 31.1816C5.14844 30.6348 5.33398 30.1758 5.70508 29.8047C6.0957 29.4141 6.56445 29.2188 7.11133 29.2188H14.8457C15.2168 29.1992 15.5195 29.1211 15.7539 28.9844C16.0078 28.8281 16.1934 28.6621 16.3105 28.4863C16.4277 28.291 16.4863 28.0957 16.4863 27.9004C16.4863 27.7051 16.4277 27.5195 16.3105 27.3438C16.1934 27.1484 16.0078 26.9824 15.7539 26.8457C15.5195 26.6895 15.2168 26.6016 14.8457 26.582H6.90625H4.5625C4.05469 26.6016 3.80078 26.8555 3.80078 27.3438V38.4473ZM36.4258 22.6562C37.4219 22.6758 38.3105 22.9883 39.0918 23.5938C39.873 24.1992 40.498 24.9219 40.9668 25.7617C41.4551 26.6016 41.8164 27.4902 42.0508 28.4277C42.2852 29.3652 42.4023 30.3223 42.4023 31.2988C42.4023 32.5879 42.1973 33.8574 41.7871 35.1074C41.3965 36.3379 40.7422 37.4316 39.8242 38.3887C38.9258 39.3457 37.793 39.8633 36.4258 39.9414H26.2012C24.834 39.8828 23.6914 39.375 22.7734 38.418C21.8555 37.4609 21.2012 36.3574 20.8105 35.1074C20.4395 33.8574 20.2539 32.5879 20.2539 31.2988C20.2539 30.0098 20.4492 28.75 20.8398 27.5195C21.2305 26.2695 21.875 25.166 22.7734 24.209C23.6914 23.2324 24.834 22.7148 26.2012 22.6562H26.7578H35.8691H36.4258ZM35.4297 36.0156C36.1719 35.9766 36.7871 35.7031 37.2754 35.1953C37.7832 34.668 38.1445 34.0625 38.3594 33.3789C38.5742 32.6953 38.6816 32.002 38.6816 31.2988C38.6816 30.5957 38.5645 29.9121 38.3301 29.248C38.1152 28.5645 37.7637 27.959 37.2754 27.4316C36.7871 26.9043 36.1719 26.6211 35.4297 26.582H27.1094C26.3672 26.6211 25.752 26.9043 25.2637 27.4316C24.7754 27.959 24.4141 28.5645 24.1797 29.248C23.9648 29.9121 23.8574 30.5957 23.8574 31.2988C23.8574 32.002 23.9648 32.6953 24.1797 33.3789C24.3945 34.0625 24.7461 34.668 25.2344 35.1953C25.7422 35.7031 26.3672 35.9766 27.1094 36.0156H35.4297Z" fill="white"/>
<path d="M7.4375 13.4004C7.4375 12.8535 7.62305 12.3945 7.99414 12.0234C8.38477 11.6328 8.85352 11.4375 9.40039 11.4375H13.8828L13.1211 9.26953C12.8086 8.46875 12.4961 7.7168 12.1836 7.01367C11.8906 6.29102 11.5488 5.63672 11.1582 5.05078C10.8066 4.46484 10.4062 4.15234 9.95703 4.11328C9.48828 4.15234 9.06836 4.46484 8.69727 5.05078C8.32617 5.63672 7.98438 6.29102 7.67188 7.01367C7.37891 7.7168 7.07617 8.46875 6.76367 9.26953L3.98047 16.8867C3.78516 17.2969 3.53125 17.6387 3.21875 17.9121C2.92578 18.166 2.47656 18.293 1.87109 18.293C1.30469 18.293 0.835938 18.0977 0.464844 17.707C0.113281 17.3164 -0.0429688 16.8477 -0.00390625 16.3008C0.015625 16.0469 0.0742188 15.8125 0.171875 15.5977L3.39453 7.27734C4.29297 5.08984 5.19141 3.32227 6.08984 1.97461C6.96875 0.646484 8.25781 -0.0273438 9.95703 -0.046875C11.6367 -0.0273438 12.916 0.646484 13.7949 1.97461C14.6934 3.2832 15.5918 5.05078 16.4902 7.27734L19.7129 15.5977C19.8105 15.8125 19.8691 16.0469 19.8887 16.3008C19.9277 16.8477 19.7617 17.3164 19.3906 17.707C19.0391 18.0977 18.5801 18.293 18.0137 18.293C17.3691 18.293 16.8906 18.166 16.5781 17.9121C16.2852 17.6387 16.041 17.2969 15.8457 16.8867L15.2891 15.3633H9.40039C8.85352 15.3633 8.39453 15.168 8.02344 14.7773C7.63281 14.4062 7.4375 13.9473 7.4375 13.4004ZM40.8594 10.207C41.2305 10.9883 41.416 11.7793 41.416 12.5801C41.416 13.3613 41.2207 14.1426 40.8301 14.9238C40.4395 15.6855 39.8047 16.3691 38.9258 16.9746C38.0469 17.5605 36.9238 17.8535 35.5566 17.8535H35.3809C35.2637 17.873 35.1465 17.8828 35.0293 17.8828H23.252C22.7246 17.8633 22.2754 17.6777 21.9043 17.3262C21.5527 16.9551 21.3672 16.5059 21.3477 15.9785V2.56055C21.3672 2.0332 21.5527 1.59375 21.9043 1.24219C22.2754 0.871094 22.7246 0.675781 23.252 0.65625H33.3301C33.4473 0.65625 33.5645 0.666016 33.6816 0.685547H33.8574C35.2246 0.724609 36.3477 1.03711 37.2266 1.62305C38.1055 2.20898 38.7402 2.88281 39.1309 3.64453C39.5215 4.38672 39.7168 5.13867 39.7168 5.90039C39.7168 6.68164 39.5312 7.44336 39.1602 8.18555C39.1406 8.22461 39.1211 8.25391 39.1016 8.27344C39.9023 8.83984 40.4883 9.48438 40.8594 10.207ZM35.7324 13.957C36.1035 13.9766 36.4062 13.9082 36.6406 13.752C36.8945 13.5957 37.0801 13.4199 37.1973 13.2246C37.3145 13.0098 37.373 12.7949 37.373 12.5801C37.373 12.4434 37.3145 12.2578 37.1973 12.0234C37.0801 11.7695 36.8945 11.5645 36.6406 11.4082C36.4062 11.252 36.1035 11.1641 35.7324 11.1445H33.8574H25.3027V13.166C25.3027 13.6934 25.5762 13.957 26.123 13.957H26.3574H35.7324ZM34.9707 6.95508C35.2051 6.81836 35.3809 6.66211 35.498 6.48633C35.6152 6.29102 35.6738 6.0957 35.6738 5.90039C35.6738 5.70508 35.6152 5.51953 35.498 5.34375C35.3809 5.14844 35.1953 4.98242 34.9414 4.8457C34.707 4.68945 34.4043 4.60156 34.0332 4.58203H26.123C25.5762 4.58203 25.3027 4.8457 25.3027 5.37305V7.21875H34.0332C34.4043 7.19922 34.7168 7.11133 34.9707 6.95508Z" fill="white"/>
</g>
<path d="M50.656 35.176C51.032 35.176 51.352 35.308 51.616 35.572C51.872 35.828 52 36.14 52 36.508V38.176C52 38.544 51.872 38.86 51.616 39.124C51.352 39.388 51.032 39.52 50.656 39.52H47.128C46.88 39.52 46.656 39.46 46.456 39.34C46.248 39.212 46.084 39.048 45.964 38.848C45.844 38.648 45.784 38.424 45.784 38.176V36.508C45.784 36.26 45.844 36.036 45.964 35.836C46.084 35.636 46.248 35.476 46.456 35.356C46.656 35.236 46.88 35.176 47.128 35.176H47.752C47.904 35.176 48.036 35.228 48.148 35.332C48.252 35.436 48.304 35.564 48.304 35.716V36.052C48.304 36.204 48.252 36.332 48.148 36.436C48.036 36.54 47.904 36.592 47.752 36.592H47.38C47.332 36.592 47.292 36.612 47.26 36.652C47.228 36.684 47.212 36.72 47.212 36.76V37.924C47.212 37.964 47.228 38.004 47.26 38.044C47.292 38.076 47.332 38.092 47.38 38.092H50.428C50.468 38.092 50.504 38.076 50.536 38.044C50.568 38.004 50.584 37.964 50.584 37.924V36.76C50.584 36.72 50.568 36.684 50.536 36.652C50.504 36.612 50.468 36.592 50.428 36.592H50.056C49.904 36.592 49.776 36.54 49.672 36.436C49.56 36.332 49.504 36.204 49.504 36.052V35.716C49.504 35.564 49.56 35.436 49.672 35.332C49.776 35.228 49.904 35.176 50.056 35.176H50.656ZM46.48 28.3797L52.792 30.0237C53.12 30.1117 53.388 30.2917 53.596 30.5637C53.812 30.8357 53.92 31.1477 53.92 31.4997V31.8357C53.92 31.9877 53.864 32.1197 53.752 32.2317C53.648 32.3357 53.52 32.3877 53.368 32.3877H53.032C52.88 32.3877 52.752 32.3357 52.648 32.2317C52.544 32.1197 52.492 31.9877 52.492 31.8357V31.4997C52.492 31.4517 52.468 31.4197 52.42 31.4037L51.388 31.1397C51.324 31.1157 51.256 31.1157 51.184 31.1397L46.48 32.3637C46.296 32.4277 46.14 32.3957 46.012 32.2677C45.86 32.1637 45.784 32.0237 45.784 31.8477V31.4997C45.784 31.3717 45.824 31.2597 45.904 31.1637C45.976 31.0677 46.076 31.0037 46.204 30.9717L48.256 30.4317C48.288 30.4237 48.304 30.4037 48.304 30.3717C48.304 30.3397 48.288 30.3197 48.256 30.3117L46.204 29.7717C46.076 29.7317 45.976 29.6677 45.904 29.5797C45.824 29.4837 45.784 29.3757 45.784 29.2557V28.9077C45.784 28.7237 45.86 28.5797 46.012 28.4757C46.14 28.3557 46.296 28.3237 46.48 28.3797ZM50.656 21.2518C51.032 21.2518 51.352 21.3838 51.616 21.6478C51.872 21.9038 52 22.2158 52 22.5838V24.2518C52 24.6198 51.872 24.9358 51.616 25.1998C51.352 25.4638 51.032 25.5958 50.656 25.5958H47.128C46.88 25.5958 46.656 25.5358 46.456 25.4158C46.248 25.2878 46.084 25.1238 45.964 24.9238C45.844 24.7238 45.784 24.4998 45.784 24.2518V22.5838C45.784 22.3358 45.844 22.1118 45.964 21.9118C46.084 21.7118 46.248 21.5518 46.456 21.4318C46.656 21.3118 46.88 21.2518 47.128 21.2518H47.752C47.904 21.2518 48.036 21.3038 48.148 21.4078C48.252 21.5118 48.304 21.6398 48.304 21.7918V22.1278C48.304 22.2798 48.252 22.4078 48.148 22.5118C48.036 22.6158 47.904 22.6678 47.752 22.6678H47.38C47.332 22.6678 47.292 22.6878 47.26 22.7278C47.228 22.7598 47.212 22.7958 47.212 22.8358V23.9998C47.212 24.0398 47.228 24.0798 47.26 24.1198C47.292 24.1518 47.332 24.1678 47.38 24.1678H50.428C50.468 24.1678 50.504 24.1518 50.536 24.1198C50.568 24.0798 50.584 24.0398 50.584 23.9998V22.8358C50.584 22.7958 50.568 22.7598 50.536 22.7278C50.504 22.6878 50.468 22.6678 50.428 22.6678H50.056C49.904 22.6678 49.776 22.6158 49.672 22.5118C49.56 22.4078 49.504 22.2798 49.504 22.1278V21.7918C49.504 21.6398 49.56 21.5118 49.672 21.4078C49.776 21.3038 49.904 21.2518 50.056 21.2518H50.656ZM51.448 16.2915C51.6 16.2915 51.732 16.3475 51.844 16.4595C51.948 16.5635 52 16.6915 52 16.8435V17.1435C52 17.5115 51.872 17.8275 51.616 18.0915C51.352 18.3555 51.032 18.4875 50.656 18.4875H44.44C44.28 18.4875 44.148 18.4355 44.044 18.3315C43.94 18.2195 43.888 18.0875 43.888 17.9355V17.5995C43.888 17.4475 43.94 17.3195 44.044 17.2155C44.148 17.1035 44.28 17.0475 44.44 17.0475H50.428C50.532 17.0475 50.584 16.9995 50.584 16.9035V16.8435C50.584 16.6915 50.636 16.5635 50.74 16.4595C50.844 16.3475 50.976 16.2915 51.136 16.2915H51.448ZM48.436 9.20256C48.676 9.20256 48.9 9.26256 49.108 9.38256C49.308 9.50256 49.472 9.66256 49.6 9.86256C49.72 10.0626 49.78 10.2866 49.78 10.5346V11.9506C49.78 11.9906 49.796 12.0306 49.828 12.0706C49.852 12.1026 49.884 12.1186 49.924 12.1186H50.428C50.468 12.1186 50.504 12.1026 50.536 12.0706C50.568 12.0306 50.584 11.9906 50.584 11.9506V10.5346C50.584 10.3826 50.636 10.2546 50.74 10.1506C50.844 10.0386 50.976 9.98256 51.136 9.98256H51.448C51.6 9.98256 51.732 10.0386 51.844 10.1506C51.948 10.2546 52 10.3826 52 10.5346V12.2026C52 12.5706 51.872 12.8866 51.616 13.1506C51.352 13.4146 51.032 13.5466 50.656 13.5466H47.128C46.88 13.5466 46.656 13.4866 46.456 13.3666C46.256 13.2386 46.096 13.0746 45.976 12.8746C45.848 12.6746 45.784 12.4506 45.784 12.2026V10.5346C45.784 10.2866 45.848 10.0626 45.976 9.86256C46.096 9.66256 46.256 9.50256 46.456 9.38256C46.656 9.26256 46.88 9.20256 47.128 9.20256H48.436ZM48.196 10.6186H47.38C47.332 10.6186 47.292 10.6386 47.26 10.6786C47.228 10.7106 47.212 10.7466 47.212 10.7866V11.9506C47.212 11.9906 47.228 12.0306 47.26 12.0706C47.292 12.1026 47.332 12.1186 47.38 12.1186H48.196C48.228 12.1186 48.26 12.1026 48.292 12.0706C48.324 12.0306 48.34 11.9906 48.34 11.9506V10.7866C48.34 10.7466 48.324 10.7106 48.292 10.6786C48.26 10.6386 48.228 10.6186 48.196 10.6186ZM50.656 2.08225C51.032 2.08225 51.352 2.21425 51.616 2.47825C51.872 2.73425 52 3.04625 52 3.41425V5.08225C52 5.45025 51.872 5.76625 51.616 6.03025C51.352 6.29425 51.032 6.42625 50.656 6.42625H50.164C50.012 6.42625 49.884 6.37425 49.78 6.27025C49.668 6.15825 49.612 6.02625 49.612 5.87425V5.53825C49.612 5.38625 49.668 5.25825 49.78 5.15425C49.884 5.05025 50.012 4.99825 50.164 4.99825H50.428C50.532 4.99825 50.584 4.94225 50.584 4.83025V3.66625C50.584 3.62625 50.568 3.59025 50.536 3.55825C50.504 3.51825 50.468 3.49825 50.428 3.49825H49.984C49.92 3.49825 49.876 3.53025 49.852 3.59425L49.3 5.33425C49.188 5.65425 48.996 5.91825 48.724 6.12625C48.452 6.32625 48.144 6.42625 47.8 6.42625H47.128C46.88 6.42625 46.656 6.36625 46.456 6.24625C46.256 6.11825 46.096 5.95425 45.976 5.75425C45.848 5.55425 45.784 5.33025 45.784 5.08225V3.41425C45.784 3.16625 45.848 2.94225 45.976 2.74225C46.096 2.54225 46.256 2.38225 46.456 2.26225C46.656 2.14225 46.88 2.08225 47.128 2.08225H47.608C47.76 2.08225 47.892 2.13425 48.004 2.23825C48.108 2.34225 48.16 2.47025 48.16 2.62225V2.95825C48.16 3.11025 48.108 3.23825 48.004 3.34225C47.892 3.44625 47.76 3.49825 47.608 3.49825H47.38C47.332 3.49825 47.292 3.51825 47.26 3.55825C47.228 3.59025 47.212 3.62625 47.212 3.66625V4.83025C47.212 4.94225 47.268 4.99825 47.38 4.99825H47.8C47.88 4.99825 47.928 4.96625 47.944 4.90225L48.496 3.16225C48.6 2.83425 48.788 2.57425 49.06 2.38225C49.332 2.18225 49.64 2.08225 49.984 2.08225H50.656Z" fill="white"/>
<defs>
<clipPath id="clip0_657_27117">
<rect width="42" height="42" fill="white"/>
</clipPath>
</defs>
</svg>
